<?xml version="1.0" encoding="UTF-8"?>
<svg id="b" data-name="Layer 2" xmlns="http://www.w3.org/2000/svg" width="604.363" height="114.99" viewBox="0 0 604.363 114.99">
  <g id="c" data-name="Layer 1">
    <g>
      <g>
        <path d="M148.811,91.346v-53.734h13.326l.645,6.986c1.647-2.723,3.761-4.783,6.34-6.18,2.58-1.396,5.444-2.096,8.598-2.096,4.369,0,8.042.932,11.016,2.795,2.972,1.863,5.14,4.729,6.502,8.598,1.575-3.654,3.796-6.465,6.663-8.438,2.865-1.969,6.196-2.955,9.995-2.955,6.304,0,11.104,1.988,14.401,5.965,3.294,3.977,4.943,10.086,4.943,18.322v30.736h-14.186v-27.512c0-3.654-.395-6.482-1.182-8.49-.789-2.004-1.864-3.455-3.224-4.352-1.362-.895-2.974-1.344-4.836-1.344-3.439-.07-6.09,1.039-7.953,3.332-1.864,2.293-2.794,5.695-2.794,10.209v28.156h-14.186v-27.512c0-3.654-.376-6.482-1.128-8.49-.752-2.004-1.827-3.455-3.224-4.352-1.397-.895-3.028-1.344-4.89-1.344-3.439-.07-6.072,1.039-7.899,3.332-1.827,2.293-2.74,5.695-2.74,10.209v28.156h-14.186Z"></path>
        <path d="M266.811,92.637c-5.303,0-9.995-1.201-14.079-3.602-4.083-2.398-7.291-5.713-9.618-9.939-2.329-4.227-3.493-9.1-3.493-14.617s1.199-10.387,3.6-14.615c2.399-4.227,5.696-7.539,9.887-9.941,4.191-2.398,9.009-3.6,14.455-3.6,4.729,0,9.081,1.236,13.057,3.707,3.977,2.473,7.164,6.092,9.565,10.855,2.399,4.766,3.6,10.551,3.6,17.355h-40.73l1.29-1.289c0,2.65.662,4.961,1.988,6.932,1.325,1.971,3.044,3.477,5.158,4.514,2.112,1.039,4.388,1.559,6.824,1.559,2.937,0,5.336-.627,7.201-1.881,1.862-1.254,3.294-2.883,4.298-4.891l12.682,4.943c-1.505,3.01-3.458,5.607-5.857,7.793-2.401,2.186-5.25,3.852-8.544,4.996-3.296,1.146-7.058,1.721-11.284,1.721ZM255.097,58.998l-1.29-1.289h25.9l-1.182,1.289c0-2.578-.609-4.639-1.827-6.18-1.219-1.539-2.705-2.668-4.46-3.385-1.756-.715-3.458-1.074-5.105-1.074s-3.404.359-5.266,1.074c-1.864.717-3.458,1.846-4.783,3.385-1.326,1.541-1.988,3.602-1.988,6.18Z"></path>
        <path d="M297.437,49.648v-12.037h36.325v12.037h-36.325ZM324.197,92.637c-5.948,0-10.443-1.469-13.487-4.406-3.046-2.938-4.567-7.129-4.567-12.574V20.848h14.186v51.691c0,2.293.5,4.029,1.504,5.213,1.002,1.182,2.472,1.773,4.406,1.773.715,0,1.504-.162,2.364-.484s1.755-.807,2.687-1.451l4.944,10.641c-1.72,1.289-3.637,2.346-5.75,3.17-2.114.822-4.21,1.236-6.287,1.236Z"></path>
        <path d="M361.704,92.637c-6.448,0-11.445-1.434-14.992-4.299-3.547-2.865-5.32-6.914-5.32-12.145,0-5.73,1.916-10.049,5.75-12.949,3.832-2.902,9.224-4.354,16.174-4.354h13.648v10.531h-8.705c-4.658,0-7.882.557-9.672,1.666-1.792,1.111-2.687,2.67-2.687,4.676,0,1.576.715,2.812,2.149,3.707,1.432.896,3.439,1.344,6.018,1.344,2.364,0,4.46-.555,6.287-1.666,1.827-1.109,3.277-2.543,4.352-4.299,1.075-1.754,1.612-3.562,1.612-5.428h3.439c0,7.309-1.38,13.004-4.138,17.088-2.759,4.084-7.398,6.127-13.917,6.127ZM376.75,91.346l-.43-10.854v-16.336c0-3.223-.341-5.98-1.021-8.275-.682-2.291-1.756-4.064-3.224-5.318-1.469-1.254-3.458-1.881-5.964-1.881-2.294,0-4.371.502-6.233,1.504-1.864,1.004-3.439,2.545-4.729,4.621l-12.466-4.299c1.002-2.291,2.472-4.529,4.406-6.717,1.935-2.184,4.46-3.977,7.577-5.373,3.116-1.396,6.932-2.096,11.445-2.096,5.444,0,9.976,1.039,13.595,3.117,3.617,2.078,6.304,4.996,8.06,8.758,1.755,3.762,2.596,8.223,2.525,13.381l-.322,29.768h-13.219Z"></path>
        <path d="M401.573,91.346v-53.734h13.326l.86,9.889v43.846h-14.186ZM437.146,63.834c0-3.654-.413-6.482-1.236-8.49-.825-2.004-1.988-3.455-3.493-4.352-1.505-.895-3.261-1.344-5.266-1.344-3.654-.07-6.466,1.039-8.436,3.332-1.972,2.293-2.956,5.695-2.956,10.209h-4.729c0-5.73.841-10.586,2.525-14.562,1.683-3.977,4.047-7.02,7.093-9.135,3.044-2.111,6.609-3.17,10.693-3.17,4.227,0,7.845.859,10.854,2.58,3.009,1.719,5.301,4.389,6.878,8.006,1.575,3.619,2.327,8.293,2.257,14.025v2.9h-14.186ZM437.146,91.346v-27.512h14.186v27.512h-14.186Z"></path>
        <path d="M487.87,92.637c-5.518,0-10.389-1.201-14.616-3.602-4.229-2.398-7.542-5.713-9.941-9.939-2.401-4.227-3.6-9.1-3.6-14.617s1.182-10.387,3.546-14.615c2.364-4.227,5.659-7.539,9.887-9.941,4.227-2.398,9.062-3.6,14.508-3.6,5.516,0,10.387,1.201,14.616,3.6,4.227,2.402,7.522,5.715,9.887,9.941,2.365,4.229,3.546,9.1,3.546,14.615s-1.182,10.391-3.546,14.617c-2.364,4.227-5.642,7.541-9.833,9.939-4.191,2.4-9.011,3.602-14.455,3.602ZM487.87,79.525c2.65,0,4.96-.646,6.932-1.936,1.97-1.289,3.528-3.062,4.675-5.318,1.145-2.258,1.72-4.854,1.72-7.793s-.575-5.533-1.72-7.791c-1.147-2.256-2.74-4.029-4.782-5.32-2.042-1.289-4.353-1.934-6.932-1.934-2.651,0-4.998.645-7.04,1.934-2.042,1.291-3.637,3.064-4.782,5.32-1.147,2.258-1.719,4.855-1.719,7.791s.572,5.535,1.719,7.793c1.146,2.256,2.757,4.029,4.836,5.318,2.077,1.289,4.441,1.936,7.093,1.936Z"></path>
        <path d="M533.006,28.906c-2.149,0-4.048-.805-5.695-2.418-1.649-1.611-2.472-3.527-2.472-5.748s.822-4.139,2.472-5.75c1.647-1.613,3.546-2.418,5.695-2.418,2.22,0,4.138.805,5.75,2.418,1.611,1.611,2.418,3.529,2.418,5.75s-.807,4.137-2.418,5.748c-1.612,1.613-3.53,2.418-5.75,2.418ZM525.913,91.346v-53.734h14.186v53.734h-14.186Z"></path>
        <path d="M570.619,92.637c-6.447,0-11.445-1.434-14.991-4.299-3.547-2.865-5.32-6.914-5.32-12.145,0-5.73,1.916-10.049,5.75-12.949,3.832-2.902,9.224-4.354,16.174-4.354h13.648v10.531h-8.705c-4.658,0-7.882.557-9.672,1.666-1.792,1.111-2.687,2.67-2.687,4.676,0,1.576.715,2.812,2.149,3.707,1.433.896,3.438,1.344,6.018,1.344,2.365,0,4.46-.555,6.287-1.666,1.827-1.109,3.278-2.543,4.353-4.299,1.075-1.754,1.612-3.562,1.612-5.428h3.438c0,7.309-1.38,13.004-4.137,17.088-2.76,4.084-7.398,6.127-13.918,6.127ZM585.665,91.346l-.43-10.854v-16.336c0-3.223-.341-5.98-1.021-8.275-.682-2.291-1.756-4.064-3.224-5.318-1.47-1.254-3.457-1.881-5.965-1.881-2.293,0-4.37.502-6.232,1.504-1.864,1.004-3.439,2.545-4.729,4.621l-12.467-4.299c1.003-2.291,2.472-4.529,4.406-6.717,1.935-2.184,4.46-3.977,7.576-5.373,3.117-1.396,6.932-2.096,11.445-2.096,5.444,0,9.977,1.039,13.595,3.117,3.617,2.078,6.304,4.996,8.061,8.758,1.755,3.762,2.596,8.223,2.525,13.381l-.322,29.768h-13.219Z"></path>
      </g>
      <path d="M94.369,15.157l-29.233,29.233,19.079,19.079.1.1,7.883-7.883v35.66h29.068V18.805c0-3.629-2.942-6.571-6.571-6.571h-13.269c-2.647,0-5.186,1.052-7.057,2.923Z" fill="#32cbed"></path>
      <path d="M60.633,48.893L26.897,15.157c-1.872-1.872-4.41-2.923-7.057-2.923H6.571c-3.629,0-6.571,2.942-6.571,6.571v72.542h29.068v-35.66l31.465,31.465.1-.1,19.079-19.079-19.079-19.079Z" fill="#094b77"></path>
    </g>
  </g>
</svg>