<?xml version="1.0" encoding="UTF-8"?>
<svg id="b" data-name="Layer 2" xmlns="http://www.w3.org/2000/svg" width="241.751" height="205.254" viewBox="0 0 241.751 205.254">
  <g id="c" data-name="Layer 1">
    <g>
      <g>
        <path d="M33.86,175.028c-2.039,0-3.827.529-5.365,1.586-1.538,1.058-2.731,2.567-3.576,4.528-.731-2.077-1.894-3.615-3.49-4.615-1.596-1-3.567-1.5-5.913-1.5-1.692,0-3.23.375-4.615,1.125-1.384.75-2.519,1.856-3.403,3.316l-.346-3.749H0v28.842h7.614v-15.113c0-2.423.491-4.249,1.471-5.48.981-1.23,2.394-1.826,4.239-1.788,1,0,1.875.241,2.625.721.75.481,1.327,1.26,1.731,2.336.404,1.077.605,2.596.605,4.557v14.767h7.614v-15.113c0-2.423.5-4.249,1.5-5.48,1-1.23,2.423-1.826,4.269-1.788,1,0,1.865.241,2.596.721.73.481,1.307,1.26,1.731,2.336.422,1.077.634,2.596.634,4.557v14.767h7.614v-16.498c0-4.421-.885-7.701-2.653-9.835-1.77-2.134-4.346-3.201-7.729-3.201Z"></path>
        <path d="M75.882,182.843c-1.289-2.557-3-4.499-5.134-5.826-2.134-1.327-4.47-1.99-7.008-1.99-2.923,0-5.509.644-7.759,1.932-2.25,1.289-4.019,3.067-5.307,5.336-1.289,2.269-1.932,4.884-1.932,7.845s.624,5.577,1.874,7.845c1.249,2.269,2.971,4.048,5.163,5.336,2.192,1.288,4.711,1.933,7.557,1.933,2.269,0,4.287-.308,6.056-.923,1.769-.615,3.297-1.509,4.586-2.682,1.287-1.173,2.336-2.567,3.143-4.182l-6.807-2.653c-.539,1.077-1.308,1.952-2.307,2.625-1.001.674-2.289,1.01-3.865,1.01-1.308,0-2.529-.278-3.663-.837-1.134-.557-2.058-1.364-2.769-2.423-.593-.882-.936-1.892-1.034-3.028h21.137c0-3.653-.645-6.758-1.933-9.316ZM60.683,182.065c.999-.384,1.941-.577,2.826-.577s1.797.193,2.74.577c.942.385,1.74.991,2.394,1.817.54.684.853,1.56.947,2.625h-12.506c.102-1.064.443-1.941,1.031-2.625.711-.827,1.566-1.432,2.567-1.817Z"></path>
        <path d="M96.503,197.957c-.462.173-.885.259-1.269.259-1.038,0-1.827-.317-2.365-.952-.539-.635-.807-1.567-.807-2.797v-12.286h7.21v-6.461h-7.21v-8.998h-7.615v8.998h-4.672v6.461h4.672v13.959c0,2.923.817,5.172,2.452,6.749,1.634,1.577,4.047,2.365,7.239,2.365,1.115,0,2.24-.222,3.375-.664,1.134-.442,2.163-1.01,3.086-1.701l-2.653-5.711c-.5.346-.98.605-1.442.779Z"></path>
        <path d="M123.932,176.7c-1.943-1.115-4.375-1.673-7.297-1.673-2.423,0-4.47.375-6.143,1.125-1.673.75-3.028,1.711-4.066,2.884-1.038,1.174-1.827,2.375-2.365,3.605l6.692,2.307c.692-1.115,1.537-1.942,2.538-2.48.999-.538,2.114-.808,3.345-.808,1.346,0,2.413.337,3.202,1.01.788.673,1.365,1.625,1.731,2.855.147.495.256,1.04.343,1.615h-6.775c-3.731,0-6.624.778-8.681,2.336-2.057,1.557-3.086,3.875-3.086,6.95,0,2.808.951,4.981,2.855,6.519,1.903,1.538,4.586,2.307,8.047,2.307,3.499,0,5.989-1.096,7.47-3.288.168-.248.323-.511.472-.782l.134,3.378h7.095l.173-15.978c.038-2.769-.414-5.163-1.355-7.182-.943-2.019-2.385-3.585-4.326-4.701ZM121.249,195.707c-.577.942-1.355,1.711-2.336,2.307-.981.597-2.106.894-3.375.894-1.385,0-2.461-.24-3.23-.721-.77-.481-1.154-1.144-1.154-1.99,0-1.076.48-1.913,1.442-2.509.961-.596,2.692-.894,5.192-.894h4.326c0,1.001-.289,1.971-.865,2.913Z"></path>
        <path d="M157.474,176.412c-1.614-.923-3.557-1.384-5.826-1.384-2.192,0-4.105.568-5.74,1.701-1.075.746-1.988,1.712-2.747,2.891l-.339-3.9h-7.153v28.842h7.615v-15.113c0-2.423.528-4.249,1.587-5.48,1.057-1.23,2.566-1.826,4.528-1.788,1.076,0,2.019.241,2.826.721.808.481,1.432,1.26,1.875,2.336.442,1.077.663,2.596.663,4.557v14.767h7.615v-16.324c.038-3.076-.366-5.586-1.211-7.528-.847-1.941-2.077-3.374-3.692-4.297Z"></path>
        <path d="M189.719,176.96c-2.27-1.288-4.884-1.932-7.845-1.932-2.923,0-5.518.644-7.787,1.932-2.27,1.289-4.038,3.067-5.307,5.336-1.27,2.269-1.904,4.884-1.904,7.845s.644,5.577,1.932,7.845c1.288,2.269,3.066,4.048,5.336,5.336,2.269,1.288,4.883,1.933,7.845,1.933,2.922,0,5.509-.645,7.759-1.933s4.009-3.066,5.278-5.336c1.269-2.269,1.903-4.884,1.903-7.845s-.634-5.576-1.903-7.845c-1.269-2.269-3.038-4.047-5.307-5.336ZM188.219,194.323c-.616,1.211-1.452,2.163-2.51,2.855-1.058.692-2.298,1.038-3.721,1.038s-2.692-.346-3.807-1.038c-1.116-.692-1.981-1.644-2.596-2.855-.616-1.211-.923-2.605-.923-4.182s.307-2.97.923-4.182c.615-1.211,1.471-2.163,2.567-2.856,1.096-.692,2.356-1.038,3.778-1.038,1.385,0,2.625.346,3.721,1.038,1.097.692,1.951,1.644,2.567,2.856.614,1.211.923,2.606.923,4.182s-.308,2.971-.923,4.182Z"></path>
        <rect x="202.409" y="175.72" width="7.614" height="28.842"></rect>
        <path d="M206.216,162.279c-1.154,0-2.173.432-3.057,1.298-.886.865-1.327,1.895-1.327,3.086s.441,2.221,1.327,3.086c.884.865,1.903,1.298,3.057,1.298,1.191,0,2.22-.432,3.086-1.298.865-.865,1.298-1.893,1.298-3.086s-.433-2.221-1.298-3.086c-.866-.865-1.895-1.298-3.086-1.298Z"></path>
        <path d="M240.393,181.401c-.942-2.019-2.385-3.585-4.326-4.701-1.942-1.115-4.375-1.673-7.296-1.673-2.423,0-4.47.375-6.143,1.125-1.673.75-3.029,1.711-4.066,2.884-1.039,1.174-1.827,2.375-2.365,3.605l6.692,2.307c.692-1.115,1.537-1.942,2.538-2.48.999-.538,2.114-.808,3.345-.808,1.346,0,2.412.337,3.202,1.01.787.673,1.364,1.625,1.73,2.855.147.495.256,1.04.344,1.615h-6.776c-3.73,0-6.624.778-8.681,2.336-2.058,1.557-3.086,3.875-3.086,6.95,0,2.808.952,4.981,2.856,6.519,1.904,1.538,4.586,2.307,8.047,2.307,3.499,0,5.989-1.096,7.47-3.288.167-.248.323-.511.471-.781l.134,3.377h7.095l.173-15.978c.038-2.769-.413-5.163-1.355-7.182ZM233.385,195.707c-.577.942-1.355,1.711-2.337,2.307-.98.597-2.105.894-3.375.894-1.384,0-2.46-.24-3.23-.721-.769-.481-1.153-1.144-1.153-1.99,0-1.076.48-1.913,1.441-2.509.961-.596,2.691-.894,5.191-.894h4.326c0,1.001-.288,1.971-.865,2.913Z"></path>
      </g>
      <g>
        <path d="M178.936,2.621l-52.268,52.268,32.567,32.567.171.171,13.456-13.456v60.871h49.617V11.216c0-6.194-5.022-11.216-11.216-11.216h-25.998c-2.374,0-4.65.943-6.329,2.621Z" fill="#32cbed"></path>
        <path d="M118.981,62.576L59.027,2.621c-1.679-1.679-3.955-2.621-6.329-2.621h-25.998c-6.194,0-11.216,5.022-11.216,11.216v123.825h49.617v-60.871l53.709,53.709.171-.171,32.567-32.567-32.567-32.567Z" fill="#094b77"></path>
      </g>
    </g>
  </g>
</svg>